<svg xmlns="http://www.w3.org/2000/svg" viewBox="0 0 600 600">
  <rect width="600" height="600" fill="black"/>
  <circle cx="172" cy="94" r="13" fill="#0000ff" opacity="0.2"/><circle cx="137" cy="122" r="13" fill="#0000ff" opacity="0.2"/><circle cx="535" cy="278" r="12" fill="#00a0ff" opacity="0.2"/><circle cx="255" cy="61" r="13" fill="#0001ff" opacity="0.2"/><circle cx="299" cy="535" r="13" fill="#ffb900" opacity="0.2"/><circle cx="511" cy="405" r="13" fill="#fffa00" opacity="0.2"/><circle cx="73" cy="364" r="13" fill="#f1045d" opacity="0.2"/><circle cx="64" cy="278" r="12" fill="#6400ff" opacity="0.2"/><circle cx="455" cy="477" r="13" fill="#fef300" opacity="0.2"/><circle cx="487" cy="443" r="13" fill="#fff900" opacity="0.2"/><circle cx="188" cy="507" r="13" fill="#fe5900" opacity="0.2"/><circle cx="71" cy="235" r="13" fill="#2600ff" opacity="0.2"/><circle cx="527" cy="235" r="13" fill="#008bff" opacity="0.2"/><circle cx="427" cy="94" r="13" fill="#0021ff" opacity="0.2"/><circle cx="411" cy="507" r="13" fill="#fbed00" opacity="0.2"/><circle cx="241" cy="527" r="13" fill="#ff8500" opacity="0.2"/><circle cx="112" cy="443" r="13" fill="#fc0b1a" opacity="0.2"/><circle cx="145" cy="421" r="9" fill="#fd0b17" opacity="0.2"/><circle cx="461" cy="122" r="13" fill="#0040ff" opacity="0.2"/><circle cx="143" cy="477" r="13" fill="#fd180f" opacity="0.2"/><circle cx="64" cy="321" r="13" fill="#da00a2" opacity="0.2"/><circle cx="527" cy="364" r="13" fill="#f7f800" opacity="0.2"/><circle cx="211" cy="473" r="9" fill="#ff5600" opacity="0.2"/><circle cx="477" cy="209" r="9" fill="#006dff" opacity="0.2"/><circle cx="388" cy="473" r="10" fill="#fee800" opacity="0.2"/><circle cx="454" cy="421" r="9" fill="#fdeb00" opacity="0.2"/><circle cx="373" cy="111" r="9" fill="#0011ff" opacity="0.2"/><circle cx="357" cy="527" r="12" fill="#ffde00" opacity="0.2"/><circle cx="299" cy="495" r="10" fill="#feaf00" opacity="0.2"/><circle cx="490" cy="244" r="9" fill="#0088ff" opacity="0.2"/><circle cx="194" cy="128" r="9" fill="#0001ff" opacity="0.2"/><circle cx="122" cy="209" r="9" fill="#1200ff" opacity="0.2"/><circle cx="172" cy="449" r="10" fill="#fe2507" opacity="0.2"/><circle cx="345" cy="62" r="12" fill="#0008ff" opacity="0.2"/><circle cx="490" cy="155" r="12" fill="#006aff" opacity="0.2"/><circle cx="87" cy="193" r="12" fill="#0b00ff" opacity="0.2"/><circle cx="496" cy="317" r="9" fill="#c5e300" opacity="0.2"/><circle cx="512" cy="193" r="13" fill="#0077ff" opacity="0.2"/><circle cx="88" cy="405" r="13" fill="#f8052a" opacity="0.2"/><circle cx="103" cy="317" r="9" fill="#d100ab" opacity="0.2"/><circle cx="337" cy="101" r="9" fill="#000aff" opacity="0.2"/><circle cx="299" cy="58" r="12" fill="#0003ff" opacity="0.2"/><circle cx="435" cy="151" r="9" fill="#0037ff" opacity="0.2"/><circle cx="212" cy="73" r="12" fill="#0000ff" opacity="0.2"/><circle cx="425" cy="449" r="10" fill="#ffed00" opacity="0.2"/><circle cx="489" cy="355" r="9" fill="#e4ec00" opacity="0.2"/><circle cx="299" cy="98" r="10" fill="#0003ff" opacity="0.2"/><circle cx="140" cy="178" r="9" fill="#0300ff" opacity="0.2"/><circle cx="458" cy="178" r="9" fill="#0056ff" opacity="0.2"/><circle cx="496" cy="280" r="9" fill="#009dff" opacity="0.2"/><circle cx="388" cy="74" r="12" fill="#0011ff" opacity="0.2"/><circle cx="535" cy="321" r="11" fill="#e2f900" opacity="0.2"/><circle cx="427" cy="400" r="6" fill="#f5e600" opacity="0.2"/><circle cx="107" cy="155" r="12" fill="#0000ff" opacity="0.2"/><circle cx="136" cy="314" r="6" fill="#bd00c6" opacity="0.2"/><circle cx="457" cy="345" r="6" fill="#cfdf00" opacity="0.2"/><circle cx="299" cy="460" r="7" fill="#fe8700" opacity="0.2"/><circle cx="110" cy="244" r="9" fill="#2d00ff" opacity="0.2"/><circle cx="403" cy="424" r="7" fill="#fde100" opacity="0.2"/><circle cx="445" cy="374" r="6" fill="#e4e300" opacity="0.2"/><circle cx="103" cy="280" r="9" fill="#6800ff" opacity="0.2"/><circle cx="172" cy="400" r="6" fill="#f8051e" opacity="0.2"/><circle cx="253" cy="489" r="10" fill="#ff7c00" opacity="0.2"/><circle cx="262" cy="101" r="10" fill="#0002ff" opacity="0.2"/><circle cx="154" cy="374" r="6" fill="#ed0048" opacity="0.2"/><circle cx="458" cy="253" r="6" fill="#0186ff" opacity="0.2"/><circle cx="387" cy="157" r="6" fill="#001cff" opacity="0.2"/><circle cx="299" cy="131" r="6" fill="#0004ff" opacity="0.2"/><circle cx="136" cy="283" r="6" fill="#6e00ff" opacity="0.2"/><circle cx="141" cy="253" r="6" fill="#3800ff" opacity="0.2"/><circle cx="476" cy="388" r="9" fill="#f6ef00" opacity="0.2"/><circle cx="226" cy="443" r="7" fill="#ff3f00" opacity="0.2"/><circle cx="371" cy="443" r="7" fill="#fede00" opacity="0.2"/><circle cx="406" cy="128" r="9" fill="#0020ff" opacity="0.2"/><circle cx="169" cy="197" r="6" fill="#0a01ff" opacity="0.2"/><circle cx="268" cy="134" r="6" fill="#0001ff" opacity="0.2"/>
</svg>